<svg width="120" height="24" viewBox="0 0 120 24" fill="none" xmlns="http://www.w3.org/2000/svg">
<g clip-path="url(#clip0_1987_166)">
<path d="M15.0606 7.72372L15.2895 8.29853L15.906 8.35024L22.4512 8.8992L22.4517 8.89924C22.6916 8.91926 22.8826 9.07619 22.9651 9.34124C23.0482 9.6082 22.9857 9.88465 22.7752 10.073C22.7752 10.073 22.7752 10.073 22.7752 10.0731L17.7888 14.5343L17.3495 14.9273L17.4806 15.5021L19.0031 22.1718L19.0031 22.172C19.0744 22.4838 18.9525 22.7365 18.762 22.8812C18.5762 23.0222 18.3559 23.045 18.1419 22.9087C18.1418 22.9086 18.1417 22.9086 18.1417 22.9085L12.5378 19.3341L12 18.9911L11.4622 19.3341L5.85832 22.9085C5.85825 22.9086 5.85818 22.9086 5.85812 22.9087C5.64446 23.0448 5.4242 23.0221 5.23821 22.8809C5.04722 22.7358 4.92577 22.4829 4.99682 22.1722L4.9969 22.1718L6.51935 15.5021L6.65054 14.9273L6.2112 14.5343L1.22484 10.0731C1.22482 10.073 1.2248 10.073 1.22478 10.073C1.01433 9.88465 0.951809 9.6082 1.03488 9.34124C1.11737 9.07619 1.30842 8.91926 1.54833 8.89924L1.54876 8.8992L8.09396 8.35024L8.71051 8.29853L8.93942 7.72372L11.4611 1.39175C11.4611 1.39173 11.4611 1.39171 11.4611 1.39169C11.6692 0.869435 12.3308 0.869435 12.5389 1.39169C12.5389 1.39171 12.5389 1.39173 12.5389 1.39175L15.0606 7.72372Z" fill="#FF9C41" stroke="#FFC531" stroke-width="2"/>
<path d="M39.0606 7.72372L39.2895 8.29853L39.906 8.35024L46.4512 8.8992L46.4517 8.89924C46.6916 8.91926 46.8826 9.07619 46.9651 9.34124C47.0482 9.6082 46.9857 9.88465 46.7752 10.073C46.7752 10.073 46.7752 10.073 46.7752 10.0731L41.7888 14.5343L41.3495 14.9273L41.4806 15.5021L43.0031 22.1718L43.0031 22.172C43.0744 22.4838 42.9525 22.7365 42.762 22.8812C42.5762 23.0222 42.3559 23.045 42.1419 22.9087C42.1418 22.9086 42.1417 22.9086 42.1417 22.9085L36.5378 19.3341L36 18.9911L35.4622 19.3341L29.8583 22.9085C29.8583 22.9086 29.8582 22.9086 29.8581 22.9087C29.6445 23.0448 29.4242 23.0221 29.2382 22.8809C29.0472 22.7358 28.9258 22.4829 28.9968 22.1722L28.9969 22.1718L30.5194 15.5021L30.6505 14.9273L30.2112 14.5343L25.2248 10.0731C25.2248 10.073 25.2248 10.073 25.2248 10.073C25.0143 9.88465 24.9518 9.6082 25.0349 9.34124C25.1174 9.07619 25.3084 8.91926 25.5483 8.89924L25.5488 8.8992L32.094 8.35024L32.7105 8.29853L32.9394 7.72372L35.4611 1.39175C35.4611 1.39173 35.4611 1.39171 35.4611 1.39169C35.6692 0.869435 36.3308 0.869435 36.5389 1.39169C36.5389 1.39171 36.5389 1.39173 36.5389 1.39175L39.0606 7.72372Z" fill="#FF9C41" stroke="#FFC531" stroke-width="2"/>
<path d="M63.0606 7.72372L63.2895 8.29853L63.906 8.35024L70.4512 8.8992L70.4517 8.89924C70.6916 8.91926 70.8826 9.07619 70.9651 9.34124C71.0482 9.6082 70.9857 9.88465 70.7752 10.073C70.7752 10.073 70.7752 10.073 70.7752 10.0731L65.7888 14.5343L65.3495 14.9273L65.4806 15.5021L67.0031 22.1718L67.0031 22.172C67.0744 22.4838 66.9525 22.7365 66.762 22.8812C66.5762 23.0222 66.3559 23.045 66.1419 22.9087C66.1418 22.9086 66.1417 22.9086 66.1417 22.9085L60.5378 19.3341L60 18.9911L59.4622 19.3341L53.8583 22.9085C53.8583 22.9086 53.8582 22.9086 53.8581 22.9087C53.6445 23.0448 53.4242 23.0221 53.2382 22.8809C53.0472 22.7358 52.9258 22.4829 52.9968 22.1722L52.9969 22.1718L54.5194 15.5021L54.6505 14.9273L54.2112 14.5343L49.2248 10.0731C49.2248 10.073 49.2248 10.073 49.2248 10.073C49.0143 9.88465 48.9518 9.6082 49.0349 9.34124C49.1174 9.07619 49.3084 8.91926 49.5483 8.89924L49.5488 8.8992L56.094 8.35024L56.7105 8.29853L56.9394 7.72372L59.4611 1.39175C59.4611 1.39173 59.4611 1.39171 59.4611 1.39169C59.6692 0.869435 60.3308 0.869435 60.5389 1.39169C60.5389 1.39171 60.5389 1.39173 60.5389 1.39175L63.0606 7.72372Z" fill="#FF9C41" stroke="#FFC531" stroke-width="2"/>
<path d="M87.0606 7.72372L87.2895 8.29853L87.906 8.35024L94.4512 8.8992L94.4517 8.89924C94.6916 8.91926 94.8826 9.07619 94.9651 9.34124C95.0482 9.6082 94.9857 9.88465 94.7752 10.073C94.7752 10.073 94.7752 10.073 94.7752 10.0731L89.7888 14.5343L89.3495 14.9273L89.4806 15.5021L91.0031 22.1718L91.0031 22.172C91.0744 22.4838 90.9525 22.7365 90.762 22.8812C90.5762 23.0222 90.3559 23.045 90.1419 22.9087C90.1418 22.9086 90.1417 22.9086 90.1417 22.9085L84.5378 19.3341L84 18.9911L83.4622 19.3341L77.8583 22.9085C77.8583 22.9086 77.8582 22.9086 77.8581 22.9087C77.6445 23.0448 77.4242 23.0221 77.2382 22.8809C77.0472 22.7358 76.9258 22.4829 76.9968 22.1722L76.9969 22.1718L78.5194 15.5021L78.6505 14.9273L78.2112 14.5343L73.2248 10.0731C73.2248 10.073 73.2248 10.073 73.2248 10.073C73.0143 9.88465 72.9518 9.6082 73.0349 9.34124C73.1174 9.07619 73.3084 8.91926 73.5483 8.89924L73.5488 8.8992L80.094 8.35024L80.7105 8.29853L80.9394 7.72372L83.4611 1.39175C83.4611 1.39173 83.4611 1.39171 83.4611 1.39169C83.6692 0.869435 84.3308 0.869435 84.5389 1.39169C84.5389 1.39171 84.5389 1.39173 84.5389 1.39175L87.0606 7.72372Z" fill="#FF9C41" stroke="#FFC531" stroke-width="2"/>
<path d="M111.061 7.72372L111.289 8.29853L111.906 8.35024L118.451 8.8992L118.452 8.89924C118.692 8.91926 118.883 9.07619 118.965 9.34124C119.048 9.6082 118.986 9.88465 118.775 10.073C118.775 10.073 118.775 10.073 118.775 10.0731L113.789 14.5343L113.349 14.9273L113.481 15.5021L115.003 22.1718L115.003 22.172C115.074 22.4838 114.953 22.7365 114.762 22.8812C114.576 23.0222 114.356 23.045 114.142 22.9087C114.142 22.9086 114.142 22.9086 114.142 22.9085L108.538 19.3341L108 18.9911L107.462 19.3341L101.858 22.9085C101.858 22.9086 101.858 22.9086 101.858 22.9087C101.644 23.0448 101.424 23.0221 101.238 22.8809C101.047 22.7358 100.926 22.4829 100.997 22.1722L100.997 22.1718L102.519 15.5021L102.651 14.9273L102.211 14.5343L97.2248 10.0731C97.2248 10.073 97.2248 10.073 97.2248 10.073C97.0143 9.88465 96.9518 9.6082 97.0349 9.34124C97.1174 9.07619 97.3084 8.91926 97.5483 8.89924L97.5488 8.8992L104.094 8.35024L104.711 8.29853L104.939 7.72372L107.461 1.39175C107.461 1.39173 107.461 1.39171 107.461 1.39169C107.669 0.869435 108.331 0.869435 108.539 1.39169C108.539 1.39171 108.539 1.39173 108.539 1.39175L111.061 7.72372Z" fill="#FF9C41" stroke="#FFC531" stroke-width="2"/>
</g>
<defs>
<clipPath id="clip0_1987_166">
<rect width="120" height="24" fill="white"/>
</clipPath>
</defs>
</svg>
