<svg width="120" height="24" viewBox="0 0 120 24" fill="none" xmlns="http://www.w3.org/2000/svg">
<g clip-path="url(#clip0_1987_166)">
<path fill-rule="evenodd" clip-rule="evenodd" d="M10.5321 1.02171C11.0747 -0.340571 12.9253 -0.340571 13.4679 1.02171L15.9896 7.35374L22.5348 7.9027C23.9446 8.02034 24.5163 9.85695 23.442 10.8183L18.4556 15.2795L19.978 21.9493C20.3063 23.3862 18.8104 24.5208 17.6041 23.7517L12 20.1772L6.39588 23.7517C5.18955 24.5208 3.69375 23.3849 4.02198 21.9493L5.54443 15.2795L0.55801 10.8183C-0.516304 9.85695 0.0553718 8.02034 1.46518 7.9027L8.01038 7.35374L10.5321 1.02171Z" fill="#FFC531"/>
<path fill-rule="evenodd" clip-rule="evenodd" d="M34.5321 1.02171C35.0747 -0.340571 36.9253 -0.340571 37.4679 1.02171L39.9896 7.35374L46.5348 7.9027C47.9446 8.02034 48.5163 9.85695 47.442 10.8183L42.4556 15.2795L43.978 21.9493C44.3063 23.3862 42.8104 24.5208 41.6041 23.7517L36 20.1772L30.3959 23.7517C29.1896 24.5208 27.6937 23.3849 28.022 21.9493L29.5444 15.2795L24.558 10.8183C23.4837 9.85695 24.0554 8.02034 25.4652 7.9027L32.0104 7.35374L34.5321 1.02171Z" fill="#FFC531"/>
<path fill-rule="evenodd" clip-rule="evenodd" d="M58.5321 1.02171C59.0747 -0.340571 60.9253 -0.340571 61.4679 1.02171L63.9896 7.35374L70.5348 7.9027C71.9446 8.02034 72.5163 9.85695 71.442 10.8183L66.4556 15.2795L67.978 21.9493C68.3063 23.3862 66.8104 24.5208 65.6041 23.7517L60 20.1772L54.3959 23.7517C53.1896 24.5208 51.6937 23.3849 52.022 21.9493L53.5444 15.2795L48.558 10.8183C47.4837 9.85695 48.0554 8.02034 49.4652 7.9027L56.0104 7.35374L58.5321 1.02171Z" fill="#FFC531"/>
<path fill-rule="evenodd" clip-rule="evenodd" d="M82.5321 1.02171C83.0747 -0.340571 84.9253 -0.340571 85.4679 1.02171L87.9896 7.35374L94.5348 7.9027C95.9446 8.02034 96.5163 9.85695 95.442 10.8183L90.4556 15.2795L91.978 21.9493C92.3063 23.3862 90.8104 24.5208 89.6041 23.7517L84 20.1772L78.3959 23.7517C77.1896 24.5208 75.6937 23.3849 76.022 21.9493L77.5444 15.2795L72.558 10.8183C71.4837 9.85695 72.0554 8.02034 73.4652 7.9027L80.0104 7.35374L82.5321 1.02171Z" fill="#FFC531"/>
<path fill-rule="evenodd" clip-rule="evenodd" d="M106.532 1.02171C107.075 -0.340571 108.925 -0.340571 109.468 1.02171L111.99 7.35374L118.535 7.9027C119.945 8.02034 120.516 9.85695 119.442 10.8183L114.456 15.2795L115.978 21.9493C116.306 23.3862 114.81 24.5208 113.604 23.7517L108 20.1772L102.396 23.7517C101.19 24.5208 99.6937 23.3849 100.022 21.9493L101.544 15.2795L96.558 10.8183C95.4837 9.85695 96.0554 8.02034 97.4652 7.9027L104.01 7.35374L106.532 1.02171Z" fill="#FFC531"/>
</g>
<defs>
<clipPath id="clip0_1987_166">
<rect width="120" height="24" fill="white"/>
</clipPath>
</defs>
</svg>
